<svg id="图层_1" data-name="图层 1" xmlns="http://www.w3.org/2000/svg" viewBox="0 0 791.47 200.03"><path d="M136.65,91.32c19.69,8.1,32.55,17,41.43,26.11a47.32,47.32,0,0,1,9,12.42,8.65,8.65,0,0,1-.62,1c-3.07,4.39-9.23,4.7-17,1.47-8.36-3.45-19-11.12-30.17-22.8A176.93,176.93,0,0,1,120,85.48a173.37,173.37,0,0,1,16.63,5.84" fill="#e57f14" fill-rule="evenodd"/><path d="M203.4,71.8c5.67,14.29,5.65,17.5,6.25,24s-.23,11.22-2.61,13.06c-4.83,3.73-15-6.24-23.31-24A104,104,0,0,1,174.88,57c-1.26-8.45-.45-14.7,2.7-16.42,6.17-3.37,20.15,16.89,25.82,31.18" fill="#f5d121" fill-rule="evenodd"/><path d="M166.91,73.72c10,13.62,16,25.41,19.22,35.45,2.86,8.83,3.36,16.18,1,20.68a47.32,47.32,0,0,0-9-12.42c-8.88-9.11-21.74-18-41.43-26.11A173.37,173.37,0,0,0,120,85.48a147.18,147.18,0,0,1-10.47-18.33c-7.16-15.12-9.33-27.94-4.32-33.64s15.51-2.75,27.76,5.78c11.25,7.84,23.95,20.81,33.92,34.43" fill="#efb91b" fill-rule="evenodd"/><path d="M187.11,129.85a20.57,20.57,0,0,1,2.17,11.88c-1.11,7.26-7.27,12.59-16.82,15.51-10.16,3.1-24.89,3.72-42.58.63a167.89,167.89,0,0,1-57.37-21.44C53.77,124.92,41.06,111,41.28,98.72c.18-12.5,13.78-19.24,33.87-19.91,13.31-.44,29.46,2.11,44.87,6.67a176.93,176.93,0,0,0,19.26,24.06c11.18,11.68,21.81,19.35,30.17,22.8,7.81,3.23,14,2.92,17-1.47a8.65,8.65,0,0,0,.62-1" fill="#d71718" fill-rule="evenodd"/><path d="M383.37,95.42l.2,0,1-5c.25-1,.5-2,.71-2.85h-.12a32.57,32.57,0,0,0-4.16-.25,23.08,23.08,0,0,0-5.29.64,14.78,14.78,0,0,0-11.18,11.06h0L360,120.81h9.5l3.61-17.06c1.21-5.82,3.21-8.57,8-8.57a15.58,15.58,0,0,1,2.19.22" fill="#231815"/><path d="M530.52,91.48c-4.7.08-11.21,2.81-12.39,8.51l-4.31,20.82H509l4.59-21.61h0a14.7,14.7,0,0,1,11.12-11,22.68,22.68,0,0,1,5.25-.63c.43,0,.86,0,1.31,0h0l-.81,3.89Z" fill="#231815"/><path d="M670.57,87.42a18.1,18.1,0,0,1,3.83.37A9.15,9.15,0,0,1,680,91.08a10.62,10.62,0,0,1,1.88,6.56,25.16,25.16,0,0,1-.61,5.15c-.07.33-.15.68-.24,1.08s-.2.77-.29,1.12l-.14.51H656.36c-.69,3.69-.26,6.46,1.29,8.29s4.55,2.89,8.77,2.89a33.84,33.84,0,0,0,5.13-.37,28.2,28.2,0,0,0,4.67-1.11l1.14-.38-.25,1.17-.58,2.75-.08.38-.38.13a29.93,29.93,0,0,1-4.9,1.17,35.3,35.3,0,0,1-5.34.39,25.37,25.37,0,0,1-5.17-.49,11.43,11.43,0,0,1-6.83-3.83,11.64,11.64,0,0,1-2.31-7.54,25.54,25.54,0,0,1,.63-5.34q3.44-16.19,18.42-16.19m-13.25,13.84h19.79q.84-4.87-.82-7.29c-1.14-1.66-3.24-2.48-6.29-2.48a12.66,12.66,0,0,0-8.3,2.62A14.33,14.33,0,0,0,657.32,101.26Z" fill="#231815"/><path d="M643.88,92.27c-1.16-.18-2.32-.32-3.49-.42-1.4-.13-2.81-.19-4.21-.19q-6.24,0-10,3.07T621.15,104a21.2,21.2,0,0,0-.51,4.36,8.34,8.34,0,0,0,1.46,5.18,7.14,7.14,0,0,0,4.39,2.52,15.59,15.59,0,0,0,3.29.31,27.28,27.28,0,0,0,4.54-.4h0a42.8,42.8,0,0,0,4.76-1.1Zm-1.33,28a14.21,14.21,0,0,1-5.66,9.11q-4.32,3-11.6,3a37.64,37.64,0,0,1-5.59-.39,25.25,25.25,0,0,1-4.79-1.17l-.57-.2.12-.59.59-2.75.16-.77.74.26a24.47,24.47,0,0,0,4.59,1.12,36.37,36.37,0,0,0,5.4.37q5.2,0,8.21-2.08A9.61,9.61,0,0,0,638,120l.1-.43c-1.54.38-3,.67-4.35.88a30.54,30.54,0,0,1-4.64.39,22.34,22.34,0,0,1-4.53-.43,10.51,10.51,0,0,1-6.39-3.69,11.69,11.69,0,0,1-2.15-7.34,27.35,27.35,0,0,1,.65-5.57q1.74-8.15,6.85-12.25c3.4-2.74,7.91-4.11,13.5-4.11a52.89,52.89,0,0,1,6,.33,44,44,0,0,1,5.52,1l.65.17-.14.65Z" fill="#231815"/><path d="M582.25,110.92a11.46,11.46,0,0,1,5-7.59q3.85-2.49,10.39-2.5c1.5,0,3,.06,4.64.16,1.4.09,2.82.21,4.26.38l.71-3.31a8.86,8.86,0,0,0,.21-1.83,4.13,4.13,0,0,0-1-2.86,5.57,5.57,0,0,0-3.08-1.54,14.83,14.83,0,0,0-3.17-.29,36.82,36.82,0,0,0-5.21.37A42.21,42.21,0,0,0,589.67,93l-1.1.3.24-1.1.58-2.75.09-.41.41-.11a43.47,43.47,0,0,1,5.52-1.16,38.39,38.39,0,0,1,5.41-.39q6.49,0,9.27,2.68t1.72,8.09l-4.69,22.07-.12.55h-3.17l0-.68,0-2.12a36,36,0,0,1-5.58,2,24.54,24.54,0,0,1-6.07.82q-5.85,0-8.35-2.46c-1.71-1.69-2.22-4.16-1.52-7.43m14.8-6a13.56,13.56,0,0,0-7.11,1.57,6.74,6.74,0,0,0-3.12,4.58,7.92,7.92,0,0,0-.18,1.6,3.49,3.49,0,0,0,.81,2.42,4.67,4.67,0,0,0,2.59,1.31,13.06,13.06,0,0,0,2.66.24,22.39,22.39,0,0,0,5.71-.75,27.17,27.17,0,0,0,5.48-2.13l1.77-8.33c-1.39-.16-2.74-.28-4.06-.36C600.06,105,598.54,105,597.05,105Z" fill="#231815"/><path d="M575.84,92.27c-1.16-.18-2.33-.32-3.5-.42-1.4-.13-2.8-.19-4.21-.19-4.15,0-7.48,1-10,3.07S554,99.87,553.11,104a21.2,21.2,0,0,0-.51,4.36,8.34,8.34,0,0,0,1.45,5.18,7.19,7.19,0,0,0,4.39,2.52,15.66,15.66,0,0,0,3.29.31,27.39,27.39,0,0,0,4.55-.4h0a42.15,42.15,0,0,0,4.75-1.1Zm-1.34,28a14.16,14.16,0,0,1-5.65,9.11q-4.32,3-11.6,3a37.78,37.78,0,0,1-5.6-.39,25.63,25.63,0,0,1-4.79-1.17l-.57-.2.13-.59.58-2.75.17-.77.74.26a24.55,24.55,0,0,0,4.58,1.12,36.56,36.56,0,0,0,5.4.37q5.22,0,8.22-2.08A9.69,9.69,0,0,0,570,120l.09-.43c-1.54.38-3,.67-4.34.88a30.56,30.56,0,0,1-4.65.39,22.31,22.31,0,0,1-4.52-.43,10.54,10.54,0,0,1-6.4-3.69,11.68,11.68,0,0,1-2.14-7.34,27.35,27.35,0,0,1,.65-5.57q1.73-8.15,6.84-12.25T569,87.42a53,53,0,0,1,6,.33,44.3,44.3,0,0,1,5.52,1l.65.17-.14.65Z" fill="#231815"/><path d="M536.83,82.24h3l-.08.76-.44,4.42H549l-.17.83L548.25,91l-.11.55h-9.33l-4.18,19.67c-.41,1.94-.38,3.36.09,4.27h0a2.58,2.58,0,0,0,2.53,1.2h5.54l-.17.83-.59,2.75-.11.55h-5.19q-4.26,0-6-2.46t-.69-7l6.07-28.56.12-.55Z" fill="#231815"/><path d="M480.41,104.13a23.42,23.42,0,0,0-.56,4.76,8.8,8.8,0,0,0,1.43,5.3,6.82,6.82,0,0,0,4.27,2.52,14.54,14.54,0,0,0,3,.28,12.78,12.78,0,0,0,9.07-3.23q3.5-3.29,4.91-9.91a22.56,22.56,0,0,0,.54-4.61A8.58,8.58,0,0,0,501.66,94a6.8,6.8,0,0,0-4.26-2.49,14.36,14.36,0,0,0-3.07-.29,12.87,12.87,0,0,0-9.05,3.17q-3.48,3.23-4.87,9.72m-4.58-.16q1.79-8.37,6.56-12.6t12.52-4.25q7.83,0,10.9,4.37t1.24,12.77q-1.77,8.35-6.54,12.58T488,121.08a21,21,0,0,1-4.3-.41,10.31,10.31,0,0,1-6.37-3.68,11.86,11.86,0,0,1-2.13-7.39,27.91,27.91,0,0,1,.64-5.63Z" fill="#231815"/><polygon points="420.76 119.97 430.03 76.39 430.14 75.84 430.7 75.84 433.9 75.84 434.42 75.84 434.56 76.34 445.35 114.75 471.43 76.14 471.63 75.84 472 75.84 474.9 75.84 475.75 75.84 475.58 76.67 466.31 120.26 466.19 120.81 465.64 120.81 462.74 120.81 461.88 120.81 462.06 119.97 469.34 85.75 445.99 120.5 445.78 120.81 445.42 120.81 442.8 120.81 442.27 120.81 442.14 120.3 432.49 85.02 425 120.26 424.89 120.81 424.33 120.81 421.44 120.81 420.59 120.81 420.76 119.97" fill="#231815"/><path d="M408,96.62a7.26,7.26,0,0,0-2.23-1,12.23,12.23,0,0,0-3.3-.4,8.45,8.45,0,0,0-5.89,2,11.24,11.24,0,0,0-3.15,6.19,18.47,18.47,0,0,0-.45,3.79,6.64,6.64,0,0,0,1,3.87,4.53,4.53,0,0,0,2.93,1.81,9.22,9.22,0,0,0,1.9.18,22.48,22.48,0,0,0,3.09-.22,22,22,0,0,0,2.79-.59ZM412,118.85a68.18,68.18,0,0,1-7.72,1.46,56.36,56.36,0,0,1-7.34.5c-5.37,0-9.12-1.46-11.22-4.39s-2.53-7.23-1.31-13q1.68-7.92,6.46-11.9t12.62-4a14.43,14.43,0,0,1,3.33.39,16,16,0,0,1,2.74,1l2.71-12.75.07-.33h9l-.11.51-9,42.18,0,.25Z" fill="#231815"/><path d="M327,110.21a11.05,11.05,0,0,1,5.25-7.52q4.14-2.47,11.29-2.47c1.1,0,2.2,0,3.31.16.95.09,1.9.22,2.84.39l.43-2a4.79,4.79,0,0,0,.11-1,2.33,2.33,0,0,0-.63-1.7,3.83,3.83,0,0,0-2-1,11.08,11.08,0,0,0-2.38-.22,54.56,54.56,0,0,0-12,1.54l-.63.14.13-.64L334,89.44l0-.27.27-.06c2.28-.51,4.43-.89,6.47-1.15a45.59,45.59,0,0,1,5.73-.39,29.25,29.25,0,0,1,4.14.26,14.37,14.37,0,0,1,4.91,1.48,7.09,7.09,0,0,1,3,2.85,9.4,9.4,0,0,1,.58,6.58l-4.62,21.73-.07.34h-5.29l-.13-.16L347,118a21.43,21.43,0,0,1-4.69,2,18.11,18.11,0,0,1-5.14.75c-4.08,0-7-.89-8.68-2.65s-2.21-4.44-1.47-8m21.33-3.07c-.85-.17-1.74-.29-2.65-.38s-2.16-.15-3.32-.15a8.71,8.71,0,0,0-4.43.94,4,4,0,0,0-1.92,2.74,3.12,3.12,0,0,0,.45,2.87,4.23,4.23,0,0,0,3.17.94,14.63,14.63,0,0,0,7.73-2.37Z" fill="#231815"/><polygon points="281.57 87.57 289.8 87.57 290.23 87.57 290.22 88 289.67 108.82 301.13 87.78 301.25 87.57 301.5 87.57 308.5 87.57 308.86 87.57 308.92 87.92 311.98 108.87 319.84 87.84 319.94 87.57 320.23 87.57 328.75 87.57 329.41 87.57 329.13 88.16 313.78 120.57 313.67 120.81 313.4 120.81 305.72 120.81 305.35 120.81 305.31 120.44 302.72 98.74 290.75 120.59 290.63 120.81 290.38 120.81 282.58 120.81 282.17 120.81 282.16 120.4 281.15 88 281.13 87.57 281.57 87.57" fill="#231815"/><polygon points="235.84 120.81 227.45 120.81 226.69 120.81 227.1 120.16 255.22 76.04 255.34 75.84 255.57 75.84 264.37 75.84 264.7 75.84 264.77 76.17 274.52 120.3 274.64 120.81 274.12 120.81 265.32 120.81 264.98 120.81 264.91 120.47 262.5 108.77 248.19 108.77 247.45 108.77 247.83 108.13 252.14 101.04 252.26 100.84 252.5 100.84 260.88 100.84 257.77 85.79 236.2 120.61 236.08 120.81 235.84 120.81" fill="#231815"/></svg>